<svg version="1" xmlns="http://www.w3.org/2000/svg" width="933.333" height="933.333" viewBox="0 0 700.000000 700.000000"><path d="M318.8 5.5c-.2.2-5.9.6-12.8 1-13.8.8-14.7.8-27.5 2.5-10.6 1.3-11.6 1.5-26 4-33.4 6-66.9 14.8-98.5 26-8 2.9-16 5.7-17.7 6.3-1.8.6-3.4 1.5-3.4 2.1-.4 3.7-.3 89.6.1 89.3 2.8-1.4 28.7-14 32.5-15.7 13.1-5.9 33.4-13 55.5-19.4 6.5-1.9 32.6-7.4 39-8.2 2.5-.3 5.2-.7 6-.9.8-.2 4.7-.7 8.5-1.1 3.9-.3 7.3-.8 7.6-1 1.3-.7 26.5-1.8 42.4-1.8 21.5 0 36.7 1.2 51 4 1.1.2 3.4.7 5 .9 8.8 1.5 29.3 8.5 40.1 13.6 13.4 6.4 26 15.3 37 26.3 17.2 17.3 26.8 34.5 32.2 58.1 2.8 12.4 3.1 14.9 3.9 32.2l.6 15.3h-8.9c-73.3.2-162.4.9-167.9 1.4-19.5 1.5-21.4 1.7-34.5 3.6-4.1.6-8.8 1.2-10.5 1.4-7.2 1-20.1 3.4-24 4.6-1.6.5-4.1 1.1-5.5 1.4-1.4.2-6.5 1.6-11.5 3-70.9 20.2-115.7 60.6-133.4 120.4-3.8 12.8-5.9 23.4-7.8 38.2-1.6 13.2-.9 54.3 1.2 64.9.2 1 .6 3.5.9 5.5 4.6 29 18.7 60.1 37.2 82.1 32.1 38.2 77.3 59.5 136.4 64.3 10.9.9 44.5.8 51.5-.2 2.2-.3 7.2-.8 11-1.2 3.9-.3 7.7-.8 8.5-.9.8-.1 3.5-.6 6-1s5.4-.9 6.5-1.1c1.1-.2 3.4-.7 5-1 12.4-2.1 35.3-9.6 49.9-16.3 18.4-8.3 38.1-22.5 55.1-39.5 10.9-11 25.3-28.7 31.6-39.1l2.4-4 .3 44.7.2 44.8h2.3c3.1.1 89.6.1 93 0h2.8l-.4-188.3c-.2-103.5-.6-189.6-1-191.2-.3-1.7-.8-5.9-1.1-9.5-.4-3.6-.8-8.1-1.1-10-.7-5.1-2.7-18.2-3-20.1-.2-.9-.6-3.2-.9-5.1-1.3-8.3-8.7-35.2-12.6-45.8-7.6-20.6-20.8-45.1-31.4-58.1-1.2-1.4-3.4-4.3-5.1-6.3-10.3-12.9-31.8-31.1-47-39.8-6.2-3.6-20.2-10.7-26.5-13.3-7.1-3-27.8-10.2-31.3-10.9-1.2-.2-5.2-1.2-8.9-2-9.8-2.4-20.7-4.3-33.8-6.1-3.8-.6-12.7-1.4-21-2.1-7.6-.6-47.7-1.3-48.2-.9zM490.9 316h3.4l-.6 25.7c-.3 14.2-.8 27.6-1.1 29.8-.3 2.2-.8 6-1.1 8.5-7.6 60.9-38.4 114.3-82.2 142.6-15.3 9.9-39.6 19.9-53.3 22-1.9.3-4.2.7-5 .9-1.8.5-6.8 1.2-16.5 2.4-7.9.9-35.4.7-43-.3-39.8-5.7-65.4-19.2-84.7-44.8-6.9-9.2-14.2-25.2-16.7-36.8-.5-2.5-1.3-5.9-1.7-7.5-.3-1.7-.8-11.1-1-21-.3-18.1.4-25.5 4.1-39.6 6.5-25.5 23.6-46.4 48-58.7 12.4-6.2 35.8-13 55.5-16.2 4.1-.7 8.2-1.4 9.1-1.5 1.4-.3 4-.6 15.9-2.1 1.9-.2 7.1-.6 11.5-1 4.4-.3 9.6-.7 11.5-.9 1.9-.3 17.2-.7 34-1.1 16.8-.4 30.6-.7 30.7-.8.1-.1 72 .2 83.2.4z"/></svg>